<?xml version="1.0" standalone="no"?>
<!DOCTYPE svg PUBLIC "-//W3C//DTD SVG 20010904//EN"
 "http://www.w3.org/TR/2001/REC-SVG-20010904/DTD/svg10.dtd">
<svg version="1.0" xmlns="http://www.w3.org/2000/svg"
 width="736.000000pt" height="736.000000pt" viewBox="0 0 736.000000 736.000000"
 preserveAspectRatio="xMidYMid meet">
<metadata>
Created by potrace 1.14, written by Peter Selinger 2001-2017
</metadata>
<g transform="translate(0.000000,736.000000) scale(0.100000,-0.100000)"
fill="#000000" stroke="none">
<path d="M3690 7263 c-3 -441 -1 -1805 2 -1807 1 -1 28 -15 58 -31 30 -16 69
-36 85 -46 17 -10 55 -30 85 -46 30 -15 57 -31 58 -35 2 -5 7 -8 11 -8 4 0 81
-40 171 -90 90 -49 167 -90 171 -90 4 0 9 -3 11 -7 2 -5 28 -21 58 -36 30 -16
71 -38 90 -49 19 -11 62 -35 95 -53 33 -18 89 -50 125 -70 36 -19 81 -43 100
-53 19 -9 37 -19 40 -22 3 -3 23 -15 45 -26 50 -27 149 -81 193 -106 17 -10
49 -27 70 -39 20 -12 42 -24 47 -27 6 -4 12 -7 15 -7 3 0 25 -12 50 -26 60
-35 301 -169 370 -207 30 -16 136 -74 235 -129 100 -55 210 -116 245 -136 36
-19 127 -69 203 -111 76 -42 143 -76 148 -76 5 0 9 -4 9 -10 0 -5 4 -10 9 -10
5 0 46 -21 92 -46 46 -26 109 -60 139 -77 30 -16 79 -43 108 -59 l52 -29 -2
901 -3 901 -30 17 c-16 9 -31 20 -33 25 -2 4 -8 7 -13 7 -6 0 -69 35 -142 78
-73 43 -139 81 -147 85 -8 4 -28 16 -45 26 -89 55 -429 251 -436 251 -4 0 -9
3 -11 8 -1 4 -16 14 -33 23 -16 9 -97 56 -180 104 -82 48 -166 97 -185 108
-19 11 -48 28 -65 38 -16 11 -36 22 -44 26 -8 3 -54 30 -103 60 -49 29 -93 53
-98 53 -6 0 -10 5 -10 10 0 6 -4 10 -9 10 -5 0 -42 19 -83 43 -40 24 -93 55
-118 69 -25 14 -91 53 -148 87 -57 33 -108 61 -113 61 -5 0 -9 5 -9 10 0 6 -5
10 -10 10 -6 0 -27 11 -48 23 -20 13 -57 35 -82 49 -142 80 -265 154 -268 160
-2 5 -8 8 -12 8 -5 0 -60 30 -122 66 -62 37 -129 75 -148 86 -19 11 -99 58
-178 104 -79 46 -147 84 -152 84 -4 0 -10 4 -12 8 -1 4 -24 20 -50 35 l-48 28
0 -98z"/>
<path d="M3085 7070 c-44 -27 -87 -53 -95 -57 -8 -4 -45 -26 -82 -50 -36 -24
-69 -43 -73 -43 -3 0 -11 -5 -18 -11 -17 -14 -368 -229 -375 -229 -3 0 -13 -7
-23 -16 -10 -9 -32 -23 -49 -32 -35 -19 -25 -13 -867 -533 -84 -52 -169 -104
-190 -116 -21 -12 -43 -26 -50 -32 -7 -6 -15 -11 -17 -11 -3 0 -70 -40 -149
-90 -79 -49 -149 -90 -156 -90 -6 0 -11 -4 -11 -9 0 -5 -15 -16 -32 -25 -18
-9 -68 -39 -111 -66 -43 -28 -80 -50 -82 -50 -2 0 -49 -29 -106 -65 -56 -36
-106 -65 -111 -65 -4 0 -8 -818 -8 -1817 l0 -1818 197 -115 c109 -63 212 -125
230 -137 18 -12 33 -20 33 -16 0 3 8 -1 18 -9 9 -8 24 -18 32 -22 8 -3 29 -15
45 -26 17 -11 37 -23 45 -27 8 -4 50 -29 93 -55 43 -26 80 -48 82 -48 2 0 40
-22 85 -50 45 -27 83 -50 85 -50 4 0 236 -137 285 -169 14 -8 28 -16 32 -16 4
0 17 -8 28 -18 11 -9 23 -17 26 -17 3 0 50 -27 105 -60 55 -33 104 -60 109
-60 6 0 10 -4 10 -9 0 -5 8 -11 18 -14 9 -4 35 -18 57 -32 22 -13 51 -30 65
-37 29 -15 89 -53 108 -68 6 -6 12 -8 12 -4 0 4 8 0 18 -9 9 -8 28 -20 42 -26
14 -6 37 -19 52 -29 15 -9 134 -80 265 -156 131 -77 240 -142 243 -145 8 -9
83 -51 113 -64 15 -6 27 -15 27 -19 0 -4 4 -8 10 -8 5 0 31 -13 57 -30 26 -16
50 -30 53 -30 3 0 6 1541 6 3425 0 1884 0 3425 -1 3425 0 0 -36 -22 -80 -50z"/>
<path d="M3689 4738 c-4 -1027 1 -1643 12 -1647 7 -2 54 -30 106 -62 52 -33
96 -59 99 -59 3 0 25 -13 49 -30 24 -16 48 -30 54 -30 6 0 11 -3 11 -8 0 -4
13 -13 28 -19 15 -7 55 -31 89 -53 34 -22 64 -40 67 -40 3 0 32 -17 63 -37 32
-21 70 -44 84 -53 14 -8 54 -32 90 -53 35 -21 93 -56 128 -77 34 -22 65 -40
68 -40 2 0 23 -13 46 -28 23 -16 51 -32 62 -36 19 -8 19 -9 -5 -19 -14 -6 -27
-14 -30 -18 -5 -6 -160 -90 -215 -117 -16 -8 -38 -22 -47 -30 -10 -8 -18 -11
-18 -6 0 5 -4 4 -8 -2 -4 -5 -23 -18 -42 -27 -19 -10 -42 -22 -50 -27 -27 -18
-311 -170 -317 -170 -4 0 -14 -6 -22 -14 -9 -7 -56 -35 -106 -61 -49 -26 -114
-61 -142 -77 l-53 -30 -1 -71 c0 -93 0 -1572 0 -1699 l1 -98 30 18 c16 9 114
67 217 127 103 61 192 112 198 114 5 2 12 7 15 10 5 6 35 24 100 58 19 10 37
20 40 23 3 3 16 11 30 19 14 8 90 52 170 99 80 46 159 92 175 102 17 9 71 41
120 70 50 29 104 60 120 70 17 9 244 142 505 295 261 153 491 286 510 297 47
26 74 42 80 48 3 3 16 11 30 18 14 6 39 20 55 30 17 9 74 43 127 75 53 31 100
57 103 57 3 0 11 5 18 11 7 5 86 53 177 106 91 53 179 104 195 114 17 11 44
26 60 34 17 9 48 26 70 39 l40 24 3 609 2 608 -37 20 c-21 11 -66 37 -101 57
-34 21 -64 38 -66 38 -2 0 -94 52 -206 115 -111 63 -206 115 -211 115 -5 0 -9
5 -9 10 0 6 -5 10 -10 10 -6 0 -43 19 -83 41 -40 23 -90 51 -112 64 -22 12
-58 32 -80 45 -22 12 -60 34 -85 48 -25 14 -58 33 -75 42 -16 9 -82 46 -145
82 -63 36 -131 74 -150 85 -78 44 -176 99 -195 110 -11 6 -36 20 -55 30 -50
27 -127 71 -268 152 -68 39 -125 71 -127 71 -2 0 -43 23 -92 51 -48 28 -113
65 -143 82 -60 33 -100 56 -157 88 -39 23 -102 58 -163 92 -19 10 -64 36 -100
57 -36 20 -87 50 -115 65 -128 71 -227 127 -309 174 -49 28 -90 51 -92 51 -2
0 -4 -60 -5 -132z"/>
</g>
</svg>
